<svg width="137" height="106" viewBox="0 0 137 106" fill="none" xmlns="http://www.w3.org/2000/svg">
<path d="M3.03948 100.426H2.03148V90.4018H3.05348L8.56948 98.7458V90.4018H9.56348V100.426H8.56948L3.03948 92.0818V100.426ZM20.9439 95.4138C20.9439 98.4518 18.9699 100.594 16.1699 100.594C13.3559 100.594 11.3959 98.4518 11.3959 95.4138C11.3959 92.3758 13.3699 90.2198 16.1699 90.2198C18.9839 90.2198 20.9439 92.3618 20.9439 95.4138ZM19.9079 95.4138C19.9079 92.9078 18.3819 91.1998 16.1699 91.1998C13.9579 91.1998 12.4459 92.9078 12.4459 95.4138C12.4459 97.9198 13.9579 99.6278 16.1699 99.6278C18.3819 99.6278 19.9079 97.9058 19.9079 95.4138ZM23.7797 90.4018V99.5018H28.3857V100.426H22.7717V90.4018H23.7797ZM30.9028 90.4018V99.5018H35.5088V100.426H29.8948V90.4018H30.9028ZM38.3848 96.2398L34.9828 90.4018H36.1168L38.5948 94.7278C38.7068 94.9378 38.7908 95.1058 38.8888 95.3298C39.0148 95.0778 39.0148 95.0778 39.1968 94.7278L41.6468 90.4018H42.7528L39.3928 96.2398V100.426H38.3848V96.2398ZM46.0875 100.426L43.1055 90.4018H44.1555L46.1855 97.2898C46.3255 97.7798 46.4515 98.2838 46.5775 98.9418C46.7455 98.2138 46.8855 97.7798 47.0395 97.2898L49.2235 90.4018H50.2735L52.4575 97.2898C52.6115 97.7938 52.7515 98.2978 52.9055 98.9418C53.0595 98.1718 53.1855 97.6818 53.2975 97.3038L55.3695 90.4018H56.3915L53.3815 100.426H52.4295L49.7415 91.9138L47.0535 100.426H46.0875ZM66.4303 95.4138C66.4303 98.4518 64.4563 100.594 61.6563 100.594C58.8423 100.594 56.8823 98.4518 56.8823 95.4138C56.8823 92.3758 58.8563 90.2198 61.6563 90.2198C64.4703 90.2198 66.4303 92.3618 66.4303 95.4138ZM65.3943 95.4138C65.3943 92.9078 63.8683 91.1998 61.6563 91.1998C59.4443 91.1998 57.9323 92.9078 57.9323 95.4138C57.9323 97.9198 59.4443 99.6278 61.6563 99.6278C63.8683 99.6278 65.3943 97.9058 65.3943 95.4138ZM77.19 95.4138C77.19 98.4518 75.216 100.594 72.416 100.594C69.602 100.594 67.642 98.4518 67.642 95.4138C67.642 92.3758 69.616 90.2198 72.416 90.2198C75.23 90.2198 77.19 92.3618 77.19 95.4138ZM76.154 95.4138C76.154 92.9078 74.628 91.1998 72.416 91.1998C70.204 91.1998 68.692 92.9078 68.692 95.4138C68.692 97.9198 70.204 99.6278 72.416 99.6278C74.628 99.6278 76.154 97.9058 76.154 95.4138ZM82.0698 100.426H79.0178V90.4018H82.0418C85.0658 90.4018 87.0818 92.4178 87.0818 95.4138C87.0818 98.4098 85.0798 100.426 82.0698 100.426ZM81.9998 91.3258H80.0258V99.5018H82.0278C84.4778 99.5018 86.0458 97.9058 86.0458 95.4138C86.0458 92.9078 84.4778 91.3258 81.9998 91.3258ZM92.7854 100.426H91.7634L95.4454 90.4018H96.6914L100.415 100.426H99.3654L98.3854 97.7658H93.7654L92.7854 100.426ZM95.9354 91.8158L94.0734 96.8838H98.0634L96.1874 91.8158C96.1454 91.6758 96.0754 91.5078 96.0614 91.4098C96.0474 91.4938 95.9914 91.6758 95.9354 91.8158ZM105.5 100.58C102.7 100.58 100.796 98.4938 100.796 95.4138C100.796 92.3338 102.728 90.2338 105.556 90.2338C107.712 90.2338 109.406 91.5358 109.812 93.5238H108.734C108.314 92.0818 107.082 91.1998 105.514 91.1998C103.316 91.1998 101.846 92.8798 101.846 95.4138C101.846 97.9338 103.316 99.6138 105.514 99.6138C107.096 99.6138 108.356 98.7598 108.79 97.4158H109.868C109.406 99.3058 107.656 100.58 105.5 100.58ZM110.001 91.3258V90.4018H117.183V91.3258H114.089V100.426H113.081V91.3258H110.001ZM127.133 95.4138C127.133 98.4518 125.159 100.594 122.359 100.594C119.545 100.594 117.585 98.4518 117.585 95.4138C117.585 92.3758 119.559 90.2198 122.359 90.2198C125.173 90.2198 127.133 92.3618 127.133 95.4138ZM126.097 95.4138C126.097 92.9078 124.571 91.1998 122.359 91.1998C120.147 91.1998 118.635 92.9078 118.635 95.4138C118.635 97.9198 120.147 99.6278 122.359 99.6278C124.571 99.6278 126.097 97.9058 126.097 95.4138ZM129.969 100.426H128.961V90.4018H132.699C134.729 90.4018 135.961 91.5218 135.961 93.2998C135.961 94.7418 135.205 95.7498 133.917 96.0998L136.059 100.426H134.939L132.895 96.2678H129.969V100.426ZM129.969 91.3118V95.3578H132.727C134.113 95.3578 134.925 94.6018 134.925 93.3278C134.925 92.0258 134.071 91.3118 132.699 91.3118H129.969Z" fill="white"/>
<path fill-rule="evenodd" clip-rule="evenodd" d="M18.0918 77.405C18.0693 77.0796 18.0922 76.7583 18.1607 76.4398L22.0216 69.8211C22.5608 69.0461 23.2273 68.9303 24.021 69.4763C25.9748 70.6608 27.9513 71.8094 29.9503 72.9236C30.7434 73.2532 31.0422 73.8281 30.8466 74.6472C30.3528 75.589 29.8243 76.5087 29.2608 77.405C30.6857 77.5884 32.1106 77.5884 33.5354 77.405C46.5219 54.9246 59.5066 32.4485 72.4893 9.9769C72.6968 9.72897 72.7198 9.47608 72.5582 9.2185C71.6027 8.70638 70.6605 8.17785 69.7315 7.63277C68.388 9.62859 67.147 11.6969 66.0085 13.8378C65.5482 14.2264 65.0197 14.3412 64.4227 14.1825L57.804 10.3216C57.1368 9.8812 56.9759 9.30662 57.3214 8.598C58.5118 6.6077 59.6839 4.6083 60.8376 2.59979C59.8407 1.9262 58.8065 1.3057 57.7351 0.738281C57.6286 0.758275 57.5367 0.804193 57.4593 0.876171C42.6916 26.413 27.9604 51.9686 13.2656 77.5429C14.8982 77.7249 16.5529 77.7249 18.2297 77.5429C18.2126 77.4588 18.1666 77.4133 18.0918 77.405ZM55.5978 15.5614C55.0628 15.1667 54.4653 15.0057 53.8052 15.0788C53.627 15.3265 53.4201 15.5563 53.1847 15.7683C51.9786 17.9511 50.7376 20.1113 49.4617 22.2491C49.1708 22.8183 49.2397 23.3468 49.6686 23.8348L56.563 27.8336C57.3127 28.0618 57.8872 27.855 58.2867 27.2131C59.401 25.2141 60.55 23.2376 61.7339 21.2839C62.4425 20.4329 62.3736 19.6746 61.5271 19.0087C59.5281 17.8944 57.5516 16.7454 55.5978 15.5614ZM45.9455 28.7299C46.3797 28.6901 46.7934 28.759 47.1865 28.9367C49.3244 30.2126 51.4845 31.4536 53.6673 32.6598C54.3346 33.1002 54.4955 33.6748 54.15 34.3834L50.1512 41.2779C49.7022 41.5439 49.2196 41.6128 48.7033 41.4847C46.5655 40.2088 44.4053 38.9678 42.2225 37.7617C41.3321 37.225 41.1712 36.5127 41.7399 35.6244C42.9697 33.5785 44.1648 31.5102 45.325 29.4194C45.5134 29.1626 45.7202 28.9329 45.9455 28.7299ZM39.7405 42.8636C39.2456 42.5008 38.694 42.34 38.0858 42.381C37.7566 42.7137 37.4578 43.0815 37.1895 43.4841C36.0293 45.5749 34.8342 47.6433 33.6044 49.6892C33.4054 50.3389 33.5662 50.8674 34.087 51.2749C36.1778 52.4351 38.2462 53.6302 40.292 54.86C41.3328 55.6166 42.1371 55.4098 42.7051 54.2395C43.7071 52.3655 44.7643 50.5268 45.8766 48.7239C46.3055 48.1418 46.4434 47.4982 46.2902 46.7935C44.1412 45.4315 41.958 44.1216 39.7405 42.8636ZM30.2261 56.0321C30.7267 55.9852 31.1863 56.1002 31.605 56.3768C33.7428 57.6527 35.903 58.8937 38.0858 60.0998C38.6132 60.7383 38.6361 61.4057 38.1547 62.0992C37.0425 63.9028 35.9853 65.7409 34.9833 67.6148C34.4466 68.5056 33.7343 68.6656 32.846 68.0975C30.8132 66.8468 28.7449 65.6527 26.6409 64.5123C25.8773 63.907 25.7624 63.1941 26.2962 62.375C27.4084 60.5714 28.4656 58.7335 29.4677 56.8594C29.6552 56.5115 29.908 56.2358 30.2261 56.0321ZM80.0043 13.6999C80.2539 13.6987 80.4841 13.7676 80.6937 13.9068L95.8506 22.6564L111.029 31.4188C111.148 31.5138 111.239 31.6286 111.305 31.7635C106.969 39.4955 102.511 47.1484 97.93 54.7222C96.1595 56.0538 94.2745 56.2377 92.2765 55.2737C84.4388 50.6885 76.5791 46.1381 68.6973 41.6226C66.8397 40.0064 66.3571 38.0531 67.2495 35.7623C71.5376 28.427 75.789 21.0728 80.0043 13.6999ZM132.536 46.9226L131.437 48.8618C130.568 50.4635 129.649 52.0263 128.679 53.5501L124.867 60.1847L124.84 60.2304L124.708 60.4604L124.422 60.959L124.221 61.3086C121.11 66.7219 118 72.1334 114.89 77.5429C108.156 77.7263 101.399 77.7263 94.6206 77.5429C94.6372 77.4588 94.684 77.4133 94.7585 77.405C102.72 63.5512 110.718 49.7163 118.751 35.9002C119.837 36.511 120.894 37.1546 121.923 37.8306C120.682 39.9244 119.464 42.0386 118.269 44.1736C118.15 44.7875 118.357 45.2701 118.889 45.6214C120.98 46.7816 123.048 47.9767 125.094 49.2065C125.513 49.4832 125.973 49.5982 126.473 49.5513C126.746 49.3255 127.022 49.0957 127.3 48.8618C128.376 46.8022 129.526 44.7797 130.748 42.7947C131.811 43.3712 132.822 44.0147 133.781 44.7251L132.951 46.1908L132.536 46.9226ZM64.0091 50.1028C64.8181 50.5297 65.5993 50.9893 66.3532 51.4817C73.2899 55.456 80.2304 59.4318 87.1746 63.4092C89.4015 64.5702 90.2509 66.3862 89.7255 68.8558C88.2598 71.7929 86.674 74.6665 84.9683 77.474C71.0415 77.5663 57.1146 77.5663 43.1877 77.474C45.2751 73.9192 47.3434 70.3575 49.3928 66.7875C49.6185 66.2883 49.8943 65.8292 50.2201 65.4086C50.8097 64.2696 51.4531 63.1665 52.1506 62.0992C52.2745 61.7007 52.4585 61.3326 52.7021 60.9961C54.5398 57.9653 56.3093 54.8858 58.0109 51.7575C58.2201 51.5176 58.4269 51.2878 58.6314 51.0681C60.1818 49.4556 61.9744 49.1339 64.0091 50.1028ZM115.994 50.4476C115.628 50.379 115.261 50.356 114.89 50.3786C114.726 50.4977 114.566 50.6356 114.408 50.7923C113.145 53.1356 111.811 55.4338 110.409 57.6868C110.193 58.3808 110.399 58.9094 111.03 59.2725C113.12 60.4322 115.188 61.6277 117.235 62.8576C118.212 63.4492 118.971 63.2424 119.51 62.2371C120.669 60.1467 121.865 58.078 123.095 56.0321C123.419 55.4463 123.35 54.9178 122.888 54.4464L119.443 52.4484L115.994 50.4476ZM107.031 64.0297C107.691 63.9566 108.288 64.1179 108.823 64.5123C110.777 65.6968 112.753 66.8454 114.753 67.9596C115.414 68.5966 115.483 69.3081 114.959 70.0968C113.729 72.1431 112.534 74.2115 111.374 76.3019C110.954 76.8024 110.426 76.9638 109.788 76.7845L106.341 74.7851L102.894 72.7857C102.439 72.2631 102.37 71.6881 102.687 71.0621C103.306 70.0012 103.925 68.9403 104.544 67.8795L104.568 67.8382L104.592 67.7964L104.617 67.7541C105.261 66.6505 105.905 65.5469 106.548 64.4434C106.707 64.2862 106.867 64.1483 107.031 64.0297Z" fill="white"/>
</svg>
