<svg width="32" height="31" viewBox="0 0 32 31" fill="none" xmlns="http://www.w3.org/2000/svg">
<path opacity="0.9" fill-rule="evenodd" clip-rule="evenodd" d="M26.4622 23.7882C29.5172 20.728 31.3029 17.5405 31.3029 13.8289C31.3029 6.29702 24.4076 0.191406 15.9004 0.191406C7.39351 0.191406 0.498047 6.29702 0.498047 13.8291C0.498047 21.3612 7.61658 26.5318 16.1237 26.5318V29.0296C16.1237 29.821 16.9443 30.3303 17.6402 29.9533C19.8142 28.7752 23.8429 26.4122 26.4622 23.7882ZM8.41848 11.9898C9.6343 11.9898 10.6198 12.9683 10.6198 14.1735C10.6198 15.3812 9.6343 16.3596 8.41848 16.3596C7.20473 16.3596 6.21913 15.3812 6.21913 14.1735C6.21913 12.9683 7.20473 11.9898 8.41848 11.9898ZM18.1009 14.1735C18.1009 12.9683 17.1157 11.9898 15.9005 11.9898C14.6854 11.9898 13.7002 12.9683 13.7002 14.1735C13.7003 15.3812 14.6855 16.3596 15.9005 16.3596C17.1157 16.3596 18.1009 15.3812 18.1009 14.1735ZM23.3822 11.9898C24.5978 11.9898 25.5819 12.9683 25.5819 14.1735C25.5819 15.3812 24.5979 16.3596 23.3822 16.3596C22.1666 16.3596 21.1812 15.3812 21.1812 14.1735C21.1812 12.9683 22.1667 11.9898 23.3822 11.9898Z" fill="white"/>
</svg>
