<svg width="24" height="22" viewBox="0 0 24 22" fill="none" xmlns="http://www.w3.org/2000/svg">
<path d="M8.03581 4.44271H6.11914V0.609375H17.6191V4.44271H15.7025V2.52604H8.03581V4.44271ZM0.369141 6.35937V11.4002C3.23559 12.2415 6.18578 12.7653 9.16664 12.9623C9.42539 12.9623 9.69372 12.9623 9.95247 12.9623V15.9427H13.7858V13.0006C14.0446 13.0006 14.3129 13.0006 14.5716 13.0006C17.5539 12.7912 20.5042 12.2545 23.3691 11.4002V6.35937H0.369141ZM15.7025 17.8594H8.03581V14.7927C5.4428 14.5567 2.87666 14.0852 0.369141 13.384V21.6927H23.3691V13.384C20.8616 14.0852 18.2955 14.5567 15.7025 14.7927V17.8594Z" fill="#ADAFBB"/>
</svg>
