<svg width="21" height="21" viewBox="0 0 21 21" fill="none" xmlns="http://www.w3.org/2000/svg">
<circle cx="10.7671" cy="10.7944" r="9.96629" fill="#FE2C55"/>
<path fill-rule="evenodd" clip-rule="evenodd" d="M11.6725 7.1697C11.6725 6.66931 11.2668 6.26367 10.7665 6.26367C10.2661 6.26367 9.86043 6.66931 9.86043 7.1697V9.88778H7.14235C6.64197 9.88778 6.23633 10.2934 6.23633 10.7938C6.23633 11.2942 6.64197 11.6998 7.14235 11.6998H9.86043V14.4179C9.86043 14.9183 10.2661 15.3239 10.7665 15.3239C11.2668 15.3239 11.6725 14.9183 11.6725 14.4179V11.6998H14.3906C14.891 11.6998 15.2966 11.2942 15.2966 10.7938C15.2966 10.2934 14.891 9.88778 14.3906 9.88778H11.6725V7.1697Z" fill="white"/>
</svg>
